<svg fill="none" height="16" viewBox="0 0 16 16" width="16" xmlns="http://www.w3.org/2000/svg" xmlns:xlink="http://www.w3.org/1999/xlink"><clipPath id="a"><path d="m0 0h16v16h-16z"/></clipPath><g clip-path="url(#a)" fill="#000"><path d="m14.3332 2.66602h-1.4444v.88888h1.3333v9.7778h-12.44443v-9.7778h1.33334v-.88888h-1.44445c-.10389.00173-.20643.02392-.30174.06529-.09532.04137-.18156.10111-.25378.17581-.07223.07471-.129033.1629-.167167.25956s-.056853.19989-.055087.30378v9.94664c-.001766.1039.016953.2071.055087.3038s.094937.1849.167167.2596c.07222.0747.15846.1344.25378.1758.09531.0413.19785.0635.30174.0653h12.66664c.1039-.0018.2065-.024.3018-.0653.0953-.0414.1815-.1011.2538-.1758.0722-.0747.129-.1629.1671-.2596.0382-.0967.0569-.1999.0551-.3038v-9.94664c.0018-.10389-.0169-.20712-.0551-.30378-.0381-.09666-.0949-.18485-.1671-.25956-.0723-.0747-.1585-.13444-.2538-.17581s-.1979-.06356-.3018-.06529z"/><path d="m3.55566 6.22266h.88889v.88889h-.88889z"/><path d="m6.22217 6.22266h.88889v.88889h-.88889z"/><path d="m8.88892 6.22266h.88888v.88889h-.88888z"/><path d="m11.5557 6.22266h.8889v.88889h-.8889z"/><path d="m3.55566 8.44531h.88889v.88889h-.88889z"/><path d="m6.22217 8.44531h.88889v.88889h-.88889z"/><path d="m8.88892 8.44531h.88888v.88889h-.88888z"/><path d="m11.5557 8.44531h.8889v.88889h-.8889z"/><path d="m3.55566 10.666h.88889v.8889h-.88889z"/><path d="m6.22217 10.666h.88889v.8889h-.88889z"/><path d="m8.88892 10.666h.88888v.8889h-.88888z"/><path d="m11.5557 10.666h.8889v.8889h-.8889z"/><path d="m4.44444 4.44423c.11788 0 .23092-.04683.31427-.13018s.13018-.19639.13018-.31427v-2.66666c0-.11788-.04683-.23092-.13018-.31427-.08335-.083353-.19639-.130178-.31427-.130178-.11787 0-.23092.046825-.31427.130178-.08334.08335-.13017.19639-.13017.31427v2.66666c0 .11788.04683.23092.13017.31427.08335.08335.1964.13018.31427.13018z"/><path d="m11.5555 4.44423c.1179 0 .2309-.04683.3143-.13018.0833-.08335.1302-.19639.1302-.31427v-2.66666c0-.11788-.0469-.23092-.1302-.31427-.0834-.083353-.1964-.130178-.3143-.130178-.1178 0-.2309.046825-.3142.130178-.0834.08335-.1302.19639-.1302.31427v2.66666c0 .11788.0468.23092.1302.31427.0833.08335.1964.13018.3142.13018z"/><path d="m5.77783 2.66602h4.44447v.88888h-4.44447z"/></g></svg>