<svg fill="none" height="31" viewBox="0 0 180 31" width="180" xmlns="http://www.w3.org/2000/svg" xmlns:xlink="http://www.w3.org/1999/xlink"><clipPath id="a"><path d="m0 0h180v30.219h-180z"/></clipPath><g clip-path="url(#a)" fill="#fff"><path d="m16.7199 14.2309-13.8062-14.2309-2.9137 3.00278c1.54419 1.5888 2.76896 3.47603 3.60414 5.55353.83518 2.07749 1.26434 4.30439 1.26289 6.55319.00145 2.2487-.42771 4.4757-1.26289 6.5532s-2.05995 3.9647-3.60414 5.5535l2.9137 3.0028 13.8062-14.2309c.226-.2331.353-.5491.353-.8786s-.127-.6455-.353-.8786zm-4.9798 1.5014-3.70109 3.8167v-8.8765l3.70109 3.8142c.1601.1652.2501.3892.2501.6228 0 .2335-.09.4575-.2501.6228z"/><path d="m22.0811 23.2776v-16.53851h6.9206c2.3721 0 4.195.76577 5.4689 2.29731 1.1985 1.4299 1.7978 3.3887 1.7978 5.8763 0 2.5291-.5851 4.5257-1.7552 5.9901-1.2638 1.5815-3.1026 2.3731-5.5165 2.3748zm3.5104-13.43753v10.33653h3.1018c1.3373 0 2.3512-.4953 3.0416-1.4858.6185-.8718.9278-2.0217.9278-3.4499 0-3.6005-1.5271-5.40083-4.5812-5.40083zm27.8332 8.01083h3.4402c0 1.0561.3586 1.8554 1.0757 2.3981.6252.4824 1.4678.7227 2.5276.721 2.1263 0 3.1895-.7003 3.1895-2.1009 0-.9527-.8425-1.6789-2.5275-2.1785-2.9739-.8769-4.5352-1.3541-4.684-1.4316-1.6717-.8424-2.5075-2.1491-2.5075-3.9201-.0222-.7576.1438-1.50843.4821-2.18136s.8378-1.24566 1.4512-1.66388c1.1333-.8252 2.5217-1.2378 4.1649-1.2378 1.8672 0 3.3767.40829 4.5285 1.22488 1.3373.93719 2.006 2.32918 2.006 4.17596h-3.4704c-.1003-1.69346-1.176-2.54019-3.2271-2.54019-.5829-.02217-1.16.12563-1.665.42638-.2487.14927-.4533.36543-.592.62531-.1387.2599-.2062.5538-.1953.8502-.0083.2898.0716.5749.2285.8155.157.2405.3831.4244.6466.5257.5165.2395 1.8422.6392 3.9769 1.1991 1.2922.3359 2.2433.7097 2.8535 1.1215.6254.3897 1.1391.9437 1.4884 1.6053.3494.6616.522 1.4069.5 2.1598 0 1.8571-.7087 3.2534-2.1263 4.1889-1.2086.7993-2.7599 1.199-4.6539 1.199-1.9692 0-3.5832-.4772-4.842-1.4316-1.4175-1.075-2.1121-2.5919-2.0837-4.5507zm19.5584 5.4267v-13.43753h-4.7643v-3.10098h13.039v3.10098h-4.7643v13.43753zm26.0778 0v-16.53851h3.5101v6.85571l6.199-6.85312h4.375l-6.218 6.54042 6.853 9.9981h-4.438l-4.765-7.4346-2.006 2.1087v5.3233zm-47.6422-13.43753v-2.84256h-11.7852v6.46039h-1.7553v2.8425h1.7553v6.9772h11.7852v-3.101h-8.2747v-3.8762h7.4547c1.4493-1.5014 0-2.8425 0-2.8425h-7.4547v-3.61783zm44.884 0v-2.84256h-11.7852v6.46039h-1.7552v2.8425h1.7552v6.9772h11.7852v-3.101h-8.2747v-3.8762h7.4547c1.4494-1.5014 0-2.8425 0-2.8425h-7.4547v-3.61783z"/><path d="m123.085 6.75724c.705-.00642 1.408.06374 2.099.20931.58.11785 1.132.35135 1.625.68739.452.31885.815.7558 1.05 1.26623.265.61405.392 1.28193.371 1.95363.027.7395-.167 1.4697-.554 2.0931-.416.5995-.981 1.0732-1.635 1.3722.897.2273 1.686.7771 2.225 1.5505.503.7896.759 1.7198.732 2.6643.019.7544-.144 1.502-.474 2.1758-.303.5969-.74 1.1107-1.274 1.4988-.554.3974-1.174.6888-1.828.8605-.689.1868-1.399.2806-2.111.2791h-7.809v-16.61086zm-.451 6.71876c.554.0238 1.101-.1395 1.557-.4651.406-.3101.609-.814.609-1.5118.013-.3305-.057-.6588-.203-.9535-.128-.2396-.314-.4402-.542-.58144-.24-.14457-.504-.24265-.779-.28942-.302-.05444-.607-.08125-.913-.08011h-3.317v3.87617zm.203 7.047c.337.0024.673-.0323 1.003-.1034.297-.0618.58-.1801.835-.3489.243-.1664.441-.3941.574-.6615.155-.3334.229-.7005.216-1.0698 0-.8528-.234-1.4609-.7-1.8244-.541-.3882-1.192-.5808-1.85-.5479h-3.869v4.5585z"/><path d="m139.943 6.75781 6.018 16.60569h-3.671l-1.219-3.6979h-6.018l-1.253 3.6979h-3.584l6.094-16.60569zm.203 10.18669-2.031-6.0908h-.045l-2.099 6.0934z"/><path d="m151.407 6.75781 6.725 11.14029h.045v-11.14029h3.318v16.60569h-3.543l-6.703-11.1118h-.047v11.1118h-3.315v-16.60569z"/><path d="m168.671 6.75781v6.88419l6.296-6.88419h4.424l-6.297 6.55859 6.906 10.0471h-4.446l-4.852-7.4656-2.031 2.1164v5.3492h-3.543v-16.60569z"/></g></svg>