<svg width="33" height="33" viewBox="0 0 33 33" fill="none" xmlns="http://www.w3.org/2000/svg">
<g clip-path="url(#clip0_1_259)">
<path d="M32.0158 16.0075C32.0157 12.9479 31.1388 9.95232 29.4889 7.37565C27.839 4.79897 25.4852 2.74911 22.7063 1.46883C19.9274 0.188546 16.8397 -0.268527 13.8091 0.151741C10.7784 0.57201 7.93171 1.85201 5.60604 3.84016C3.28037 5.82831 1.57319 8.44132 0.68667 11.3697C-0.199845 14.2981 -0.228554 17.4193 0.603943 20.3635C1.43644 23.3077 3.09527 25.9517 5.38397 27.9823C7.67268 30.0129 10.4954 31.345 13.5178 31.821V20.6439H9.44585V16.0075H13.5107V12.4787C13.5107 8.46839 15.9012 6.251 19.5581 6.251C20.7586 6.26779 21.9563 6.37242 23.1415 6.56404V10.5032H21.1233C19.1336 10.5032 18.5146 11.7387 18.5146 13.0028V16.0075H22.9542L22.2427 20.6344H18.5099V31.821C22.2749 31.2242 25.7036 29.3038 28.1793 26.4051C30.655 23.5064 32.0154 19.8196 32.0158 16.0075Z" fill="white"/>
<path d="M22.2379 20.6439L22.9494 16.017H18.5098V13.0028C18.5098 11.7387 19.1288 10.5032 21.1185 10.5032H23.1367V6.56402C21.9515 6.3724 20.7538 6.26777 19.5533 6.25098C15.8964 6.25098 13.5059 8.46837 13.5059 12.4786V16.0075H9.4458V20.6439H13.5106V31.8304C15.1685 32.0897 16.8567 32.0897 18.5146 31.8304V20.6439H22.2379Z" fill="black"/>
</g>
<defs>
<clipPath id="clip0_1_259">
<rect width="32.0158" height="32.0158" fill="white"/>
</clipPath>
</defs>
</svg>
