<svg width="20" height="27" viewBox="0 0 20 27" fill="none" xmlns="http://www.w3.org/2000/svg">
<path d="M20 23.3333V7.5L12.5 0H3.33333C2.44928 0 1.60143 0.35119 0.976311 0.976311C0.351189 1.60143 0 2.44928 0 3.33333V23.3333C0 24.2174 0.351189 25.0652 0.976311 25.6904C1.60143 26.3155 2.44928 26.6667 3.33333 26.6667H16.6667C17.5507 26.6667 18.3986 26.3155 19.0237 25.6904C19.6488 25.0652 20 24.2174 20 23.3333ZM12.5 5C12.5 5.66304 12.7634 6.29893 13.2322 6.76777C13.7011 7.23661 14.337 7.5 15 7.5H18.3333V23.3333C18.3333 23.7754 18.1577 24.1993 17.8452 24.5118C17.5326 24.8244 17.1087 25 16.6667 25H3.33333C2.89131 25 2.46738 24.8244 2.15482 24.5118C1.84226 24.1993 1.66667 23.7754 1.66667 23.3333V3.33333C1.66667 2.89131 1.84226 2.46738 2.15482 2.15482C2.46738 1.84226 2.89131 1.66667 3.33333 1.66667H12.5V5Z" fill="black"/>
<path d="M4.33752 23.4768C4.01268 23.3469 3.75096 23.0959 3.60752 22.7768C3.28252 22.1301 3.39086 21.4835 3.74086 20.9401C4.07086 20.4285 4.61752 19.9935 5.23586 19.6285C6.01909 19.1842 6.847 18.8239 7.70586 18.5535C8.37284 17.3544 8.964 16.1148 9.47586 14.8418C9.16982 14.1464 8.92987 13.4238 8.75919 12.6835C8.61586 12.0168 8.56086 11.3568 8.68252 10.7901C8.80752 10.2001 9.13919 9.67013 9.76586 9.41846C10.0859 9.29013 10.4325 9.21846 10.7692 9.29013C10.9385 9.32618 11.0977 9.39948 11.2353 9.5047C11.3728 9.60992 11.4851 9.74443 11.5642 9.89846C11.7109 10.1718 11.7642 10.4918 11.7759 10.7951C11.7875 11.1085 11.7559 11.4551 11.6975 11.8185C11.5575 12.6685 11.2475 13.7085 10.8309 14.8085C11.2907 15.7918 11.8373 16.7322 12.4642 17.6185C13.206 17.5599 13.9522 17.5878 14.6875 17.7018C15.2942 17.8118 15.9109 18.0268 16.2875 18.4768C16.4875 18.7168 16.6092 19.0101 16.6209 19.3401C16.6325 19.6601 16.5425 19.9768 16.3909 20.2785C16.2595 20.558 16.0558 20.7974 15.8009 20.9718C15.5489 21.1362 15.2514 21.2167 14.9509 21.2018C14.3992 21.1785 13.8609 20.8751 13.3959 20.5068C12.8304 20.0393 12.3209 19.508 11.8775 18.9235C10.7504 19.0514 9.63674 19.2778 8.54919 19.6001C8.05115 20.4834 7.48264 21.325 6.84919 22.1168C6.36252 22.7001 5.83419 23.2101 5.30419 23.4285C4.99967 23.5662 4.65427 23.5835 4.33752 23.4768ZM6.63586 20.3085C6.35919 20.4351 6.10252 20.5685 5.87086 20.7051C5.32419 21.0285 4.96919 21.3435 4.79252 21.6168C4.63586 21.8585 4.63252 22.0335 4.72586 22.2185C4.74252 22.2551 4.75919 22.2785 4.76919 22.2918C4.78908 22.2865 4.80857 22.2798 4.82752 22.2718C5.05586 22.1785 5.41919 21.8801 5.88586 21.3185C6.15126 20.9935 6.40153 20.6565 6.63586 20.3085ZM9.36919 18.0918C9.92573 17.9619 10.4873 17.8546 11.0525 17.7701C10.7491 17.3057 10.4655 16.8286 10.2025 16.3401C9.94111 16.9311 9.66322 17.5147 9.36919 18.0901V18.0918ZM13.4459 18.8418C13.6959 19.1135 13.9392 19.3418 14.1709 19.5251C14.5709 19.8418 14.8492 19.9468 15.0009 19.9518C15.0415 19.9571 15.0827 19.9483 15.1175 19.9268C15.1869 19.872 15.2408 19.8003 15.2742 19.7185C15.3334 19.6169 15.3672 19.5026 15.3725 19.3851C15.3716 19.346 15.3561 19.3086 15.3292 19.2801C15.2425 19.1768 14.9959 19.0268 14.4659 18.9318C14.1287 18.8754 13.7877 18.8459 13.4459 18.8435V18.8418ZM10.1292 12.9985C10.2695 12.546 10.3808 12.0851 10.4625 11.6185C10.5142 11.3051 10.5342 11.0468 10.5259 10.8435C10.5263 10.7313 10.5083 10.6198 10.4725 10.5135C10.3891 10.5238 10.3077 10.5462 10.2309 10.5801C10.0859 10.6385 9.96752 10.7568 9.90419 11.0518C9.83752 11.3718 9.85419 11.8335 9.98086 12.4218C10.0209 12.6068 10.0709 12.8001 10.1309 12.9985H10.1292Z" fill="black"/>
</svg>
