<svg width="33" height="33" viewBox="0 0 33 33" fill="none" xmlns="http://www.w3.org/2000/svg">
<g clip-path="url(#clip0_1_273)">
<path d="M16.0079 32.0158C24.8488 32.0158 32.0158 24.8488 32.0158 16.0079C32.0158 7.16698 24.8488 0 16.0079 0C7.16698 0 0 7.16698 0 16.0079C0 24.8488 7.16698 32.0158 16.0079 32.0158Z" fill="white"/>
<path d="M16.0078 7.74306C18.6995 7.74306 19.0173 7.75492 20.0797 7.80235C20.7194 7.81012 21.3531 7.92722 21.9533 8.1486C22.3897 8.31208 22.7848 8.56955 23.1106 8.90275C23.4454 9.22818 23.703 9.62443 23.8647 10.0624C24.0871 10.6615 24.2043 11.2946 24.211 11.9336C24.2608 12.996 24.2703 13.3162 24.2703 16.0079C24.2703 18.6996 24.2703 19.0174 24.211 20.0798C24.2043 20.7188 24.0871 21.3519 23.8647 21.951C23.6971 22.3856 23.4405 22.7804 23.1113 23.1099C22.7821 23.4395 22.3877 23.6966 21.9533 23.8648C21.3531 24.0862 20.7194 24.2033 20.0797 24.2111C19.0173 24.2585 18.6995 24.2703 16.0078 24.2703C13.3161 24.2703 12.9983 24.2585 11.9359 24.2111C11.2962 24.2033 10.6625 24.0862 10.0623 23.8648C9.62794 23.6966 9.23349 23.4395 8.90431 23.1099C8.57513 22.7804 8.3185 22.3856 8.15089 21.951C7.9285 21.3519 7.81136 20.7188 7.80464 20.0798C7.75483 19.0174 7.74535 18.6972 7.74535 16.0079C7.74535 13.3186 7.74535 12.996 7.80464 11.9336C7.81136 11.2946 7.9285 10.6615 8.15089 10.0624C8.31257 9.62443 8.57026 9.22818 8.90503 8.90275C9.23084 8.56955 9.62595 8.31208 10.0623 8.1486C10.6625 7.92722 11.2962 7.81012 11.9359 7.80235C12.9983 7.75492 13.3161 7.74306 16.0078 7.74306ZM16.0078 5.92883C13.271 5.92883 12.9248 5.92883 11.8529 5.98812C11.0161 6.00694 10.1886 6.16731 9.40543 6.46243C8.73563 6.72097 8.12734 7.1168 7.61966 7.62448C7.11198 8.13216 6.71614 8.74046 6.4576 9.41026C6.16159 10.1924 6.00118 11.0193 5.98329 11.8553C5.93349 12.932 5.92163 13.2782 5.92163 16.0126C5.92163 18.747 5.92163 19.0956 5.98329 20.1676C6.00156 21.0044 6.16195 21.832 6.4576 22.615C6.71668 23.2842 7.11273 23.8919 7.62036 24.3991C8.12799 24.9064 8.736 25.3019 9.40543 25.5605C10.1883 25.8567 11.016 26.0171 11.8529 26.0348C12.9272 26.0846 13.2758 26.0964 16.0078 26.0964C18.7398 26.0964 19.0908 26.0846 20.1628 26.0348C20.9996 26.0171 21.8273 25.8567 22.6102 25.5605C23.2796 25.3019 23.8876 24.9064 24.3953 24.3991C24.9029 23.8919 25.2989 23.2842 25.558 22.615C25.8537 21.832 26.014 21.0044 26.0323 20.1676C26.0821 19.0933 26.094 18.7446 26.094 16.0126C26.094 13.2806 26.094 12.9296 26.0323 11.8553C26.0144 11.0193 25.854 10.1924 25.558 9.41026C25.2995 8.74046 24.9036 8.13216 24.3959 7.62448C23.8883 7.1168 23.28 6.72097 22.6102 6.46243C21.827 6.16731 20.9995 6.00694 20.1628 5.98812C19.0884 5.93832 18.7398 5.92883 16.0078 5.92883Z" fill="black"/>
<path d="M16.0078 10.8308C14.9838 10.8303 13.9826 11.1336 13.1309 11.7022C12.2793 12.2707 11.6153 13.0791 11.2231 14.0251C10.8309 14.971 10.7281 16.012 10.9276 17.0164C11.127 18.0208 11.6199 18.9435 12.3439 19.6678C13.0678 20.3921 13.9903 20.8854 14.9946 21.0853C15.9989 21.2853 17.04 21.1829 17.9861 20.7911C18.9322 20.3993 19.7409 19.7358 20.3099 18.8844C20.8788 18.0329 21.1825 17.0319 21.1825 16.0079C21.1828 15.3281 21.0492 14.655 20.7893 14.0269C20.5294 13.3988 20.1483 12.8281 19.6677 12.3473C19.1872 11.8665 18.6166 11.4851 17.9886 11.2249C17.3607 10.9647 16.6876 10.8308 16.0078 10.8308ZM16.0078 19.3684C15.3431 19.3684 14.6933 19.1712 14.1406 18.8019C13.5879 18.4325 13.1572 17.9075 12.9029 17.2933C12.6486 16.6792 12.5822 16.0034 12.7121 15.3514C12.8419 14.6995 13.1622 14.1007 13.6324 13.6308C14.1026 13.161 14.7016 12.8411 15.3537 12.7117C16.0057 12.5823 16.6815 12.6492 17.2955 12.9039C17.9095 13.1586 18.4341 13.5897 18.8031 14.1426C19.1721 14.6956 19.3688 15.3455 19.3683 16.0103C19.367 16.9007 19.0124 17.7542 18.3824 18.3834C17.7523 19.0126 16.8982 19.366 16.0078 19.366V19.3684Z" fill="black"/>
<path d="M21.3889 11.836C22.0569 11.836 22.5984 11.2945 22.5984 10.6265C22.5984 9.9585 22.0569 9.41699 21.3889 9.41699C20.721 9.41699 20.1794 9.9585 20.1794 10.6265C20.1794 11.2945 20.721 11.836 21.3889 11.836Z" fill="black"/>
</g>
<defs>
<clipPath id="clip0_1_273">
<rect width="32.0158" height="32.0158" fill="white"/>
</clipPath>
</defs>
</svg>
