<svg width="33" height="33" viewBox="0 0 33 33" fill="none" xmlns="http://www.w3.org/2000/svg">
<g clip-path="url(#clip0_1_265)">
<path d="M16.0079 32.0158C24.8488 32.0158 32.0158 24.8488 32.0158 16.0079C32.0158 7.16698 24.8488 0 16.0079 0C7.16698 0 0 7.16698 0 16.0079C0 24.8488 7.16698 32.0158 16.0079 32.0158Z" fill="white"/>
<path d="M17.2458 13.8258C17.509 13.5294 17.7201 13.2282 17.9952 12.9745C18.3855 12.594 18.8475 12.2949 19.3543 12.0946C19.8612 11.8943 20.4028 11.7968 20.9478 11.8077C21.5757 11.7968 22.2022 11.8726 22.8094 12.033C24.1991 12.4361 25.0055 13.3918 25.392 14.7484C25.6482 15.7649 25.7639 16.8118 25.7359 17.8598C25.7359 20.0725 25.7359 22.2828 25.7359 24.5001C25.7359 24.7065 25.679 24.761 25.475 24.7586C24.3335 24.7492 23.1944 24.7492 22.0576 24.7586C21.8561 24.7586 21.8205 24.6994 21.8205 24.5215C21.8205 22.4171 21.8205 20.3128 21.8205 18.2084C21.8323 17.6798 21.7701 17.1522 21.6355 16.6409C21.3628 15.6922 20.6869 15.2179 19.698 15.2677C18.3485 15.3389 17.6442 16.01 17.4734 17.3832C17.4316 17.7103 17.411 18.0399 17.4118 18.3697C17.4118 20.4164 17.4118 22.463 17.4118 24.5096C17.4118 24.7136 17.3596 24.7729 17.1509 24.7705C16.0055 24.7705 14.8576 24.7705 13.7098 24.7705C13.5248 24.7705 13.4727 24.7231 13.4727 24.5333C13.4727 20.4828 13.4727 16.4314 13.4727 12.3792C13.4727 12.1776 13.5367 12.142 13.7264 12.142C14.8173 12.1515 15.9074 12.1515 16.9968 12.142C17.196 12.142 17.2482 12.2061 17.2339 12.3958C17.2387 12.8559 17.2458 13.3397 17.2458 13.8258Z" fill="black"/>
<path d="M11.0041 18.4553C11.0041 20.4593 11.0041 22.4632 11.0041 24.4672C11.0041 24.6901 10.9495 24.7589 10.7195 24.7565C9.57877 24.7423 8.44044 24.7565 7.3021 24.7565C7.11949 24.7565 7.06494 24.7114 7.06494 24.5193C7.06494 20.4593 7.06494 16.4008 7.06494 12.3438C7.06494 12.1755 7.10763 12.1067 7.28549 12.1185C8.44043 12.1185 9.59537 12.1185 10.7503 12.1185C10.9732 12.1185 11.0017 12.2016 11.0017 12.3936C11.0001 14.4142 11.0009 16.4348 11.0041 18.4553Z" fill="black"/>
<path d="M11.3169 8.09839C11.3193 8.5489 11.1877 8.98997 10.9391 9.36564C10.6904 9.7413 10.3357 10.0346 9.92008 10.2085C9.50444 10.3823 9.04655 10.4287 8.60447 10.3419C8.16238 10.2551 7.75603 10.039 7.43696 9.72095C7.1179 9.40288 6.90049 8.99722 6.8123 8.55541C6.72412 8.11361 6.76914 7.65556 6.94165 7.23938C7.11416 6.82319 7.4064 6.46762 7.78129 6.21776C8.15617 5.9679 8.59682 5.83501 9.04734 5.83594C9.64708 5.83904 10.2215 6.07817 10.6462 6.50159C11.071 6.92501 11.3119 7.49866 11.3169 8.09839Z" fill="black"/>
</g>
<defs>
<clipPath id="clip0_1_265">
<rect width="32.0158" height="32.0158" fill="white"/>
</clipPath>
</defs>
</svg>
