<svg width="18" height="18" viewBox="0 0 18 18" fill="none" xmlns="http://www.w3.org/2000/svg">
<path d="M7.26098 9.34783C9.18197 9.34783 10.7392 7.4791 10.7392 5.17391C10.7392 2.86872 9.18197 1 7.26098 1C5.33999 1 3.78271 2.86872 3.78271 5.17391C3.78271 7.4791 5.33999 9.34783 7.26098 9.34783Z" stroke="white" stroke-width="1.5" stroke-linecap="round" stroke-linejoin="round"/>
<path d="M13.5217 16.3051H1C1 15.0136 1.51305 13.775 2.42627 12.8618C3.33949 11.9486 4.57808 11.4355 5.86957 11.4355H8.65217C9.94366 11.4355 11.1822 11.9486 12.0955 12.8618C13.0087 13.775 13.5217 15.0136 13.5217 16.3051Z" stroke="white" stroke-width="1.5" stroke-linecap="round" stroke-linejoin="round"/>
<path d="M14.9131 1V5.17391" stroke="white" stroke-width="1.5" stroke-linecap="round" stroke-linejoin="round"/>
<path d="M12.8262 3.08667H17.0001" stroke="white" stroke-width="1.5" stroke-linecap="round" stroke-linejoin="round"/>
</svg>
