<svg width="33" height="33" viewBox="0 0 33 33" fill="none" xmlns="http://www.w3.org/2000/svg">
<g clip-path="url(#clip0_1_262)">
<path d="M16.0079 32.0158C24.8488 32.0158 32.0158 24.8488 32.0158 16.0079C32.0158 7.16698 24.8488 0 16.0079 0C7.16698 0 0 7.16698 0 16.0079C0 24.8488 7.16698 32.0158 16.0079 32.0158Z" fill="white"/>
<path d="M12.7732 25.2266C20.5993 25.2266 24.868 18.7499 24.868 13.1317C24.868 12.9491 24.868 12.7665 24.868 12.5839C25.6996 11.9817 26.4175 11.2365 26.9882 10.3831C26.2122 10.7253 25.3899 10.9507 24.5479 11.0519C25.4353 10.52 26.0994 9.68403 26.4166 8.69929C25.5827 9.19513 24.6699 9.54407 23.7178 9.73091C23.1345 9.10979 22.3781 8.67824 21.5465 8.49222C20.715 8.3062 19.8468 8.37429 19.0544 8.68765C18.2621 9.00102 17.5821 9.54521 17.1028 10.2497C16.6234 10.9541 16.3667 11.7863 16.3661 12.6384C16.3647 12.9649 16.4013 13.2904 16.4752 13.6084C14.7851 13.5237 13.1318 13.0844 11.6225 12.3192C10.1132 11.5539 8.78181 10.4798 7.71467 9.16648C7.17047 10.1022 7.00366 11.2103 7.24823 12.2648C7.49279 13.3194 8.13033 14.2409 9.03088 14.8416C8.35575 14.8209 7.69541 14.6388 7.10519 14.3104C7.10395 14.3285 7.10395 14.3467 7.10519 14.3649C7.10546 15.3463 7.44521 16.2974 8.06679 17.0569C8.68836 17.8163 9.55351 18.3374 10.5155 18.5317C9.88983 18.7016 9.23371 18.7267 8.5969 18.6052C8.87006 19.4487 9.39908 20.1862 10.1105 20.7153C10.8219 21.2444 11.6804 21.5389 12.5668 21.5578C11.0608 22.7387 9.20162 23.3793 7.2878 23.3768C6.94936 23.3774 6.6112 23.3576 6.27515 23.3175C8.21857 24.5656 10.4801 25.2284 12.7898 25.2266" fill="black"/>
</g>
<defs>
<clipPath id="clip0_1_262">
<rect width="32.0158" height="32.0158" fill="white"/>
</clipPath>
</defs>
</svg>
