<svg width="18" height="18" viewBox="0 0 18 18" fill="none" xmlns="http://www.w3.org/2000/svg">
<path d="M9 17C13.4183 17 17 13.4183 17 9C17 4.58172 13.4183 1 9 1C4.58172 1 1 4.58172 1 9C1 13.4183 4.58172 17 9 17Z" stroke="white" stroke-width="1.5" stroke-miterlimit="10"/>
<path d="M9.00001 17C11.4973 17 13.5217 13.4183 13.5217 9C13.5217 4.58172 11.4973 1 9.00001 1C6.50272 1 4.47827 4.58172 4.47827 9C4.47827 13.4183 6.50272 17 9.00001 17Z" stroke="white" stroke-width="1.5" stroke-miterlimit="10"/>
<path d="M2.67676 4.12988C4.58623 5.28155 6.7738 5.8902 9.00369 5.8902C11.2336 5.8902 13.4212 5.28155 15.3306 4.12988" stroke="white" stroke-width="1.5" stroke-miterlimit="10"/>
<path d="M15.6506 13.445C14.2175 12.2346 11.7757 11.4346 9.00009 11.4346C6.22443 11.4346 3.78265 12.2346 2.34961 13.445" stroke="white" stroke-width="1.5" stroke-miterlimit="10"/>
</svg>
