<svg width="33" height="33" viewBox="0 0 33 33" fill="none" xmlns="http://www.w3.org/2000/svg">
<g clip-path="url(#clip0_1_270)">
<path d="M16.0079 32.0158C24.8488 32.0158 32.0158 24.8488 32.0158 16.0079C32.0158 7.16698 24.8488 0 16.0079 0C7.16698 0 0 7.16698 0 16.0079C0 24.8488 7.16698 32.0158 16.0079 32.0158Z" fill="white"/>
<path d="M26.2339 10.8712C26.1123 10.4161 25.8729 10.0011 25.5398 9.66802C25.2068 9.33494 24.7918 9.09553 24.3367 8.97393C22.6814 8.54706 16.0078 8.54706 16.0078 8.54706C16.0078 8.54706 9.33432 8.54706 7.6695 8.99291C7.21442 9.11451 6.79943 9.35391 6.46635 9.68699C6.13326 10.0201 5.89386 10.4351 5.77227 10.8901C5.32642 12.5502 5.32642 16.0269 5.32642 16.0269C5.32642 16.0269 5.32642 19.5012 5.77227 21.166C5.89502 21.6193 6.13501 22.0321 6.46807 22.3631C6.80113 22.6941 7.21552 22.9315 7.6695 23.0514C9.33432 23.4878 16.0078 23.4878 16.0078 23.4878C16.0078 23.4878 22.6813 23.4878 24.3462 23.0419C24.8002 22.922 25.2145 22.6846 25.5476 22.3536C25.8807 22.0227 26.1206 21.6098 26.2434 21.1565C26.6893 19.4965 26.6893 16.0174 26.6893 16.0174C26.6893 16.0174 26.6798 12.536 26.2339 10.8712ZM13.8734 19.219V12.8158L19.4181 16.0174L13.8734 19.219Z" fill="black"/>
</g>
<defs>
<clipPath id="clip0_1_270">
<rect width="32.0158" height="32.0158" fill="white"/>
</clipPath>
</defs>
</svg>
